<?xml version="1.0" encoding="UTF-8"?>
<svg width="32px" height="30px" viewBox="0 0 32 30" version="1.1" xmlns="http://www.w3.org/2000/svg" xmlns:xlink="http://www.w3.org/1999/xlink">
    <title>download</title>
    <desc>Created with Sketch.</desc>
    <g id="new" stroke="none" stroke-width="1" fill="none" fill-rule="evenodd">
        <g id="Print" transform="translate(-1256.000000, -36.000000)" fill="#FFFFFF">
            <g id="download" transform="translate(1256.725024, 35.925526)">
                <path d="M23.8865333,6.76592222 C27.8087222,6.76592222 31,9.95582222 30.9996556,13.8766333 C30.9996556,15.8623556 30.1564556,17.7729889 28.6849889,19.1232111 C27.6013667,20.3115444 26.0427556,20.9921667 24.4038889,20.9921667 L19.6068111,20.9921667 C19.2747667,20.9921667 19.0050667,20.7228111 19.0050667,20.3904222 C19.0050667,20.0580333 19.2744222,19.7886778 19.6068111,19.7886778 L24.4035444,19.7886778 C25.6931444,19.7886778 26.9672444,19.2303333 27.8114778,18.2948222 C27.8245667,18.2800111 27.8386889,18.2662333 27.8531556,18.2528 C29.0883333,17.1292222 29.7961667,15.5341 29.7961667,13.8766333 C29.7961667,10.6195667 27.1446333,7.96975556 23.8861889,7.96975556 C23.4945556,7.96975556 23.1039556,8.00902222 22.7257556,8.08652222 C22.5673111,8.11958889 22.4033556,8.08686667 22.2693667,7.99696667 C22.1353778,7.90672222 22.0430667,7.76687778 22.0131,7.60843333 C21.3469444,4.06582222 18.2366111,1.49488889 14.6175333,1.49488889 C10.4666333,1.49488889 7.0897,4.87182222 7.0897,9.02272222 C7.0897,9.28415556 7.10382222,9.54765556 7.13103333,9.80598889 C7.14894444,9.9758 7.09417778,10.1452667 6.97982222,10.2720222 C6.86581111,10.3984333 6.70323333,10.4711111 6.53273333,10.4711111 L5.86347778,10.4711111 C3.29392222,10.4711111 1.20348889,12.5615444 1.20348889,15.1311 C1.20348889,17.6992778 3.29392222,19.7886778 5.86347778,19.7886778 L11.1345111,19.7886778 C11.4669,19.7886778 11.7362556,20.0580333 11.7362556,20.3904222 C11.7362556,20.7228111 11.4669,20.9921667 11.1345111,20.9921667 L5.86347778,20.9921667 C2.63017778,20.9921667 -9.23705556e-14,18.3626778 -9.23705556e-14,15.1311 C-9.23705556e-14,11.8978 2.63017778,9.26727778 5.86347778,9.26727778 L5.89,9.26727778 C5.88758889,9.18564444 5.88655556,9.10401111 5.88655556,9.02237778 C5.88655556,4.20773333 9.80323333,0.291055556 14.6178778,0.291055556 C18.6182556,0.291055556 22.0826778,3.0008 23.0688222,6.81345556 C23.3392111,6.78176667 23.6127,6.76592222 23.8865333,6.76592222 Z M22.1701667,23.1428778 C22.4384889,22.9482667 22.8149667,23.0075111 23.0102667,23.2765222 C23.2052222,23.5455333 23.1456333,23.9216667 22.8766222,24.1169667 L15.8534,29.2161222 C15.8296333,29.2336889 15.8020778,29.2419556 15.7762444,29.2553889 C15.7545444,29.2667556 15.7345667,29.2791556 15.7114889,29.2881111 C15.6429444,29.3139444 15.5723333,29.3308222 15.5,29.3308222 C15.4280111,29.3308222 15.3574,29.3139444 15.2888556,29.2881111 C15.2657778,29.2791556 15.2458,29.2664111 15.2241,29.2550444 C15.1986111,29.2416111 15.1710556,29.2333444 15.1469444,29.2157778 L8.12303333,24.1166222 C7.85402222,23.9213222 7.79443333,23.5451889 7.98973333,23.2761778 C8.18468889,23.0075111 8.56116667,22.9472333 8.83017778,23.1428778 L14.8986,27.5486667 L14.8986,13.2645556 C14.8986,12.9321667 15.1679556,12.6628111 15.5003444,12.6628111 C15.8323889,12.6628111 16.1020889,12.9321667 16.1020889,13.2645556 L16.1020889,27.5486667 L22.1701667,23.1428778 Z" id="Combined-Shape"></path>
            </g>
        </g>
    </g>
</svg>